<svg width="35" height="35" viewBox="0 0 35 35" fill="none" xmlns="http://www.w3.org/2000/svg">
<circle cx="17.5" cy="17.5" r="16.1792" fill="white"/>
<path d="M17.5 0C7.83569 0 0 7.83571 0 17.5C0 27.1641 7.83569 35 17.5 35C27.1642 35 34.9998 27.1641 34.9998 17.5C34.9999 7.83571 27.1642 0 17.5 0ZM26.7411 25.5344L25.3399 26.9359C25.0898 27.1857 24.3572 27.3416 24.3337 27.3416C19.901 27.3803 15.6329 25.6391 12.497 22.5029C9.35251 19.3566 7.60934 15.0733 7.65615 10.6256C7.65615 10.6236 7.81658 9.91207 8.06652 9.66451L9.46764 8.26317C9.98036 7.74807 10.9653 7.51529 11.6552 7.74612L11.95 7.84444C12.6379 8.07505 13.3602 8.83569 13.5502 9.53647L14.255 12.1233C14.4451 12.8261 14.1888 13.826 13.6762 14.3387L12.7406 15.2744C13.6592 18.6749 16.3273 21.3436 19.7284 22.2643L20.6636 21.3284C21.1787 20.8133 22.1782 20.5572 22.8794 20.7469L25.4659 21.4543C26.1668 21.6469 26.9273 22.3646 27.1579 23.0523L27.2562 23.3513C27.4847 24.0393 27.2537 25.024 26.7411 25.5344Z" fill="black"/>
</svg>
