<svg width="103" height="50" viewBox="0 0 103 50" fill="none" xmlns="http://www.w3.org/2000/svg">
<g clip-path="url(#clip0_214_25)">
<path d="M63.3182 36.4696H56.8447V27.7334H57.7237V35.65H61.7562V27.7334H62.6352V35.65H64.1318V37.7761H63.3182V36.4696ZM65.4681 27.7334H70.4746V28.5946H66.3411V31.3265H70.4389V32.1817H66.3411V35.6084H70.4389V36.4696H65.4681V27.7334ZM71.5198 27.7334H72.5413L74.6318 31.1424L76.7401 27.7334H77.7497L75.1485 31.9679L77.922 36.4696H76.9005L74.6318 32.8053L72.3513 36.4696H71.3298L74.1151 31.9679L71.5198 27.7334Z" fill="white"/>
<path d="M56.834 23.8846V15.1484H61.211V16.0096H57.6951V18.8009H58.1049C59.1937 18.8009 59.9836 18.8979 60.4746 19.0919C60.9695 19.2819 61.3575 19.5848 61.6386 20.0005C61.9237 20.4123 62.0662 20.8716 62.0662 21.3783C62.0662 22.0435 61.8168 22.6275 61.3179 23.1303C60.819 23.6332 60.1242 23.8846 59.2333 23.8846H56.834ZM57.6951 19.6798V23.0294H58.7701C59.4075 23.0294 59.8747 22.968 60.1717 22.8453C60.4686 22.7186 60.7042 22.5265 60.8784 22.2692C61.0566 22.0079 61.1457 21.7169 61.1457 21.3962C61.1457 20.9923 61.0209 20.6498 60.7715 20.3687C60.5221 20.0876 60.2113 19.9035 59.8391 19.8164C59.4669 19.7253 58.9146 19.6798 58.1821 19.6798H57.6951ZM70.6776 23.8846H69.769V17.1914L64.0142 23.8846H63.8182V15.1484H64.6912V21.9604L70.4816 15.1484H70.6776V23.8846ZM72.9938 15.9977C73.6075 15.285 74.3657 14.9287 75.2684 14.9287C75.985 14.9287 76.5769 15.1365 77.0441 15.5523C77.5113 15.964 77.7449 16.4985 77.7449 17.1558C77.7449 18.0862 77.3074 18.7533 76.4324 19.1572C77.5846 19.5135 78.1606 20.2856 78.1606 21.4734C78.1606 22.2652 77.9033 22.9027 77.3886 23.3857C76.8739 23.8687 76.1691 24.1102 75.2743 24.1102C74.6488 24.1102 74.1044 23.9816 73.6411 23.7242C73.1819 23.4629 72.7483 23.0076 72.3405 22.3583L73.0175 21.9604C73.4214 22.5542 73.7995 22.9363 74.1519 23.1066C74.5043 23.2729 74.8705 23.356 75.2506 23.356C75.8049 23.356 76.276 23.1957 76.664 22.875C77.0521 22.5542 77.2461 22.0831 77.2461 21.4615C77.2461 21.1329 77.1787 20.8478 77.0441 20.6063C76.9135 20.3608 76.7274 20.1628 76.4859 20.0124C76.2444 19.8619 76.0147 19.7669 75.797 19.7273C75.5792 19.6877 75.2209 19.6679 74.722 19.6679H74.5735V18.9018H74.8646C76.1592 18.9018 76.8066 18.3772 76.8066 17.328C76.8066 16.841 76.6581 16.455 76.3612 16.1699C76.0682 15.8809 75.696 15.7364 75.2446 15.7364C74.6587 15.7364 74.1083 16.0016 73.5936 16.5322L72.9938 15.9977ZM79.8711 15.1484H80.75V18.8127H85.1923V15.1484H86.0713V23.8846H85.1923V19.6679H80.75V23.8846H79.8711V15.1484ZM88.2034 15.1484H93.2099V16.0096H89.0764V18.7415H93.1742V19.5967H89.0764V23.0234H93.1742V23.8846H88.2034V15.1484ZM102.855 16.7697L102.166 17.2983C101.786 16.8034 101.328 16.4292 100.794 16.1759C100.263 15.9185 99.6793 15.7898 99.0419 15.7898C98.345 15.7898 97.6997 15.9581 97.1058 16.2946C96.5119 16.6272 96.0506 17.0766 95.722 17.6428C95.3974 18.205 95.235 18.8385 95.235 19.5432C95.235 20.6083 95.5993 21.4971 96.3278 22.2098C97.0603 22.9225 97.9828 23.2788 99.0953 23.2788C100.319 23.2788 101.342 22.7997 102.166 21.8416L102.855 22.3642C102.419 22.9185 101.875 23.3481 101.222 23.6529C100.572 23.9539 99.8456 24.1043 99.0419 24.1043C97.5136 24.1043 96.308 23.5955 95.4251 22.578C94.6847 21.7188 94.3145 20.6815 94.3145 19.466C94.3145 18.1872 94.7619 17.1122 95.6567 16.2412C96.5554 15.3662 97.6799 14.9287 99.03 14.9287C99.8456 14.9287 100.582 15.091 101.239 15.4157C101.897 15.7364 102.435 16.1877 102.855 16.7697Z" fill="white"/>
<path d="M24.9467 49.8934C38.7244 49.8934 49.8934 38.7244 49.8934 24.9467C49.8934 11.169 38.7244 0 24.9467 0C11.169 0 0 11.169 0 24.9467C0 38.7244 11.169 49.8934 24.9467 49.8934Z" fill="white"/>
<path d="M29.0626 30.998H22.1616V31.9607H29.0626V30.998Z" fill="#292929"/>
<path d="M29.0723 17.7394V16.71H22.6479H21.6852V17.7394V23.6967H19.4834V24.6594H21.6852V28.9297H22.6479V24.6594H26.9468V23.6967H22.6479V17.7394H29.0723Z" fill="#292929"/>
<path d="M6.06006 16.71V30.6359V31.4175V31.5986H14.8213L15.7627 33.1842L16.9395 30.6359H7.02277V16.71H6.06006Z" fill="#292929"/>
<path d="M15.7041 16.71H14.7627V28.948H15.7041V16.71Z" fill="#292929"/>
<path d="M33.1996 31.6462L43.6178 16.9101L42.3691 16.9387L37.832 23.3345L33.1996 16.71H31.9509L37.222 24.1829L31.9509 31.6462H33.1996Z" fill="#292929"/>
<path d="M38.4038 26.0224L42.4358 31.6652L43.8465 31.6461L39.0806 25.2217L38.4038 26.0224Z" fill="#292929"/>
</g>
<defs>
<clipPath id="clip0_214_25">
<rect width="103" height="50" fill="white"/>
</clipPath>
</defs>
</svg>
