<svg width="52" height="52" viewBox="0 0 52 52" fill="none" xmlns="http://www.w3.org/2000/svg">
<path d="M30.3335 39V13C30.3335 11.8507 29.8769 10.7485 29.0643 9.93583C28.2516 9.12317 27.1494 8.66663 26.0002 8.66663H8.66683C7.51756 8.66663 6.41536 9.12317 5.6027 9.93583C4.79004 10.7485 4.3335 11.8507 4.3335 13V36.8333C4.3335 37.4079 4.56177 37.959 4.9681 38.3654C5.37443 38.7717 5.92553 39 6.50016 39H10.8335" fill="white"/>
<path d="M30.3335 39V13C30.3335 11.8507 29.8769 10.7485 29.0643 9.93583C28.2516 9.12317 27.1494 8.66663 26.0002 8.66663H8.66683C7.51756 8.66663 6.41536 9.12317 5.6027 9.93583C4.79004 10.7485 4.3335 11.8507 4.3335 13V36.8333C4.3335 37.4079 4.56177 37.959 4.9681 38.3654C5.37443 38.7717 5.92553 39 6.50016 39H10.8335" stroke="#EC1C20" stroke-width="2" stroke-linecap="round" stroke-linejoin="round"/>
<path d="M32.5 39H19.5" stroke="white" stroke-width="2" stroke-linecap="round" stroke-linejoin="round"/>
<path d="M41.1668 39H45.5002C46.0748 39 46.6259 38.7718 47.0322 38.3654C47.4386 37.9591 47.6668 37.408 47.6668 36.8334V28.925C47.666 28.4333 47.4979 27.9566 47.1902 27.573L39.6502 18.148C39.4475 17.8943 39.1904 17.6893 38.8979 17.5483C38.6054 17.4073 38.2849 17.3338 37.9602 17.3334H30.3335" fill="white"/>
<path d="M41.1668 39H45.5002C46.0748 39 46.6259 38.7718 47.0322 38.3654C47.4386 37.9591 47.6668 37.408 47.6668 36.8334V28.925C47.666 28.4333 47.4979 27.9566 47.1902 27.573L39.6502 18.148C39.4475 17.8943 39.1904 17.6893 38.8979 17.5483C38.6054 17.4073 38.2849 17.3338 37.9602 17.3334H30.3335" stroke="#EC1C20" stroke-width="2" stroke-linecap="round" stroke-linejoin="round"/>
<path d="M36.8333 43.3333C39.2266 43.3333 41.1667 41.3932 41.1667 39C41.1667 36.6067 39.2266 34.6666 36.8333 34.6666C34.4401 34.6666 32.5 36.6067 32.5 39C32.5 41.3932 34.4401 43.3333 36.8333 43.3333Z" fill="white" stroke="#EC1C20" stroke-width="2" stroke-linecap="round" stroke-linejoin="round"/>
<path d="M15.1668 43.3333C17.5601 43.3333 19.5002 41.3932 19.5002 39C19.5002 36.6067 17.5601 34.6666 15.1668 34.6666C12.7736 34.6666 10.8335 36.6067 10.8335 39C10.8335 41.3932 12.7736 43.3333 15.1668 43.3333Z" fill="white" stroke="#EC1C20" stroke-width="2" stroke-linecap="round" stroke-linejoin="round"/>
</svg>
