<svg width="136" height="136" viewBox="0 0 136 136" fill="none" xmlns="http://www.w3.org/2000/svg">
<path d="M65.8926 32.1422C65.8926 28.2011 62.6863 24.9945 58.7449 24.9945C54.8049 24.9945 51.5996 28.2009 51.5996 32.1422C51.5996 36.0836 54.8049 39.2899 58.7449 39.2899C62.6863 39.2899 65.8926 36.0836 65.8926 32.1422ZM54.2561 32.1422C54.2561 29.6658 56.2698 27.6508 58.7452 27.6508C61.2216 27.6508 63.2366 29.6655 63.2366 32.1422C63.2366 34.6189 61.2219 36.6337 58.7452 36.6337C56.2698 36.6337 54.2561 34.6189 54.2561 32.1422Z" fill="black" fill-opacity="0.7"/>
<path d="M59.7393 52.7948C60.9678 51.407 71.744 39.0416 71.744 32.2891C71.744 25.1228 65.9124 19.2924 58.7448 19.2924C51.5785 19.2924 45.748 25.1226 45.748 32.2891C45.748 39.0413 56.5218 51.407 57.7503 52.7946L58.7445 53.9179L59.7393 52.7948ZM48.4046 32.2894C48.4046 26.5877 53.0432 21.9489 58.7451 21.9489C64.448 21.9489 69.088 26.5875 69.088 32.2894C69.088 36.7081 62.3488 45.6092 58.7451 49.8812C55.1419 45.61 48.4046 36.7112 48.4046 32.2894Z" fill="black" fill-opacity="0.7"/>
<path d="M24.9397 94.2225H12.1382V96.8788H24.9397V94.2225Z" fill="black" fill-opacity="0.7"/>
<path d="M9.04354 94.2225H4.85889V96.8788H9.04354V94.2225Z" fill="black" fill-opacity="0.7"/>
<path d="M24.9394 101.479H17.2129V104.135H24.9394V101.479Z" fill="black" fill-opacity="0.7"/>
<path d="M51.2597 74.4091H44.4536V77.0653H51.2597V74.4091Z" fill="black" fill-opacity="0.7"/>
<path d="M11.373 47.4805V72.7699H14.2827H21.8076L35.8345 83.3229C35.7925 83.6918 35.758 84.0658 35.733 84.4454C31.7268 87.927 29.2485 92.7056 29.2485 97.9724V103.545H34.0694C34.4652 107.88 36.7769 111.666 40.1487 114.051H21.543V116.708H70.9493V114.051H56.8398C58.5247 112.86 59.9444 111.319 60.9937 109.533H69.9157L74.1716 107.337C75.3448 107.975 76.6886 108.338 78.115 108.338H97.3431L97.9708 108.337L98.3692 107.853C98.3921 107.825 98.8394 107.292 99.6663 106.441C100.715 109.607 102.831 112.276 105.559 114.051H83.168V116.708H131.141V114.051H121.326C125.291 111.464 127.919 106.991 127.919 101.914C127.919 98.697 126.836 95.586 124.896 93.0655C126.283 92.8878 127.71 92.79 129.174 92.79C130.287 92.79 130.656 92.0311 130.742 91.7984C131.185 90.6066 130.133 89.6995 128.541 88.3265C128.183 88.0173 127.844 87.7256 127.648 87.5285C124.451 84.3291 120.426 82.2654 116.06 81.5251L105.175 54.8516H108.456V53.6063H108.729C111.065 53.6063 112.966 51.7055 112.966 49.3691V49.278C112.966 46.9416 111.065 45.0405 108.729 45.0405H108.456V43.7952H99.2686C96.2174 43.7952 93.7349 46.2778 93.7349 49.329V51.9002C93.7349 51.9999 93.7402 52.0979 93.7497 52.1948H92.1313L86.4814 46.5447H79.8456V49.201H85.3812L91.0311 54.8511H96.3603L93.4121 63.7854L97.393 87.367C95.4359 89.2782 93.8358 91.5612 92.7135 94.1099H77.6353C76.92 92.6437 76.3409 91.1169 75.9045 89.5367C73.945 82.4362 75.4418 76.1651 76.7155 72.6695C78.1012 72.3204 79.1311 71.0672 79.1311 69.5749C79.1311 65.2253 75.5924 61.6867 71.2428 61.6867H43.9025C40.8471 61.6867 38.3611 64.1724 38.3611 67.2281C38.3611 68.2856 38.6642 69.2716 39.1805 70.1133H36.6624V47.4805H11.373ZM14.0293 70.1136V50.1368H34.0062V70.1136H14.2827H14.0293ZM31.9048 97.9721C31.9048 88.8128 40.7881 81.3607 51.7071 81.3607H56.7251C63.9498 81.3607 69.8275 86.261 69.8275 92.2843V98.7097V100.038V100.889H62.924C62.2514 93.5192 56.0376 87.7267 48.4965 87.7267C40.9541 87.7267 34.7393 93.5192 34.0667 100.889H31.9051L31.9048 97.9721ZM36.7389 100.889C37.4014 94.9867 42.4204 90.3829 48.4963 90.3829C54.5711 90.3829 59.589 94.9867 60.2512 100.889H36.7389ZM52.4126 103.545C51.8575 105.177 50.3134 106.356 48.4963 106.356C46.6781 106.356 45.1332 105.177 44.5778 103.545H52.4126ZM48.4936 114.051C42.4188 114.051 37.4008 109.447 36.7386 103.545H41.8299C42.4496 106.658 45.2025 109.012 48.4963 109.012C51.7887 109.012 54.5408 106.658 55.1603 103.545H60.2512C60.12 104.715 59.8185 105.834 59.3702 106.877H54.6625V109.533H57.7849C55.6161 112.282 52.2586 114.051 48.4936 114.051ZM69.2711 106.877H62.2108C62.5723 105.815 62.8148 104.7 62.9202 103.545H70.6058C70.9432 104.266 71.3804 104.93 71.8997 105.52L69.2711 106.877ZM125.263 101.913C125.263 108.437 119.954 113.745 113.429 113.745C107.839 113.745 102.982 109.75 101.847 104.344C103.163 103.156 104.83 101.779 106.805 100.398C106.693 100.886 106.633 101.392 106.633 101.913C106.633 105.66 109.681 108.709 113.429 108.709C117.176 108.709 120.225 105.66 120.225 101.913C120.225 98.9653 118.338 96.4509 115.71 95.5116C117.63 94.732 119.68 94.0695 121.846 93.5943C124.025 95.8057 125.263 98.8006 125.263 101.913ZM110.452 99.0423L112.249 102.522L114.609 101.304L112.813 97.8239C113.014 97.7936 113.219 97.7729 113.429 97.7729C115.712 97.7729 117.569 99.6301 117.569 101.913C117.569 104.196 115.712 106.053 113.429 106.053C111.146 106.053 109.289 104.196 109.289 101.913C109.289 100.798 109.734 99.7874 110.452 99.0423ZM108.729 47.6967C109.601 47.6967 110.31 48.4059 110.31 49.278V49.3691C110.31 50.2409 109.601 50.9501 108.729 50.9501H108.456V47.6967H108.729ZM96.3914 51.9005V49.3293C96.3914 47.7424 97.682 46.4517 99.2689 46.4517H105.8V52.1954H99.2423H96.6859C96.5234 52.1951 96.3914 52.0628 96.3914 51.9005ZM96.1412 63.9928L99.1571 54.8527H102.307L113.07 81.2298C112.855 81.2236 112.64 81.2138 112.423 81.2138C107.727 81.2138 103.332 82.755 99.7507 85.3754L96.1412 63.9928ZM112.423 83.8701C117.463 83.8701 122.203 85.836 125.768 89.4049C126.004 89.6413 126.325 89.9218 126.671 90.2209C117.605 90.8526 110.153 94.7947 105.347 98.1464C100.778 101.333 97.7883 104.495 96.7351 105.682H78.115C75.4705 105.682 73.2464 103.846 72.6442 101.378H82.6155L82.6049 101.365L93.5702 101.365L93.7253 100.215C94.9838 90.8967 103.022 83.8701 112.423 83.8701ZM91.7485 96.7664C91.5642 97.4021 91.4067 98.0494 91.2805 98.7089L80.4839 98.7095C80.0005 98.0778 79.5481 97.4294 79.1257 96.7667H91.7485V96.7664ZM77.2196 98.7095L72.4835 98.7097V92.2843C72.4835 84.7966 65.4142 78.7045 56.7248 78.7045H51.7069C46.8465 78.7045 42.3457 80.0403 38.666 82.3005C39.4355 77.9137 41.39 74.5126 42.5795 72.7707H73.8714C72.5826 76.7274 71.3716 83.095 73.3444 90.2435C74.1764 93.258 75.4763 96.0955 77.2196 98.7095ZM43.9025 64.3432H71.2431C74.128 64.3432 76.4751 66.6902 76.4751 69.5752C76.4751 69.8719 76.2336 70.1136 75.9367 70.1136H43.9025C42.3117 70.1136 41.0173 68.8192 41.0173 67.2284C41.0173 65.6376 42.3117 64.3432 43.9025 64.3432ZM39.4385 72.7699C38.3576 74.6048 37.1007 77.2209 36.349 80.3859L26.226 72.7699H36.6624H39.4385Z" fill="black" fill-opacity="0.7"/>
<path d="M31.6368 53.3027H24.0176V55.959H31.6368V53.3027Z" fill="black" fill-opacity="0.7"/>
<path d="M79.2723 114.051H74.6709V116.707H79.2723V114.051Z" fill="black" fill-opacity="0.7"/>
<path d="M18.4884 114.051H14.2827V116.707H18.4884V114.051Z" fill="black" fill-opacity="0.7"/>
</svg>
