<svg width="600" height="600" viewBox="0 0 600 600" fill="none" xmlns="http://www.w3.org/2000/svg">
<path d="M513.8 194.267H452.867L584.533 62.6001C587.628 59.5031 590.083 55.8269 591.757 51.7813C593.431 47.7357 594.292 43.4 594.29 39.0217C594.288 34.6434 593.425 30.3083 591.748 26.2639C590.071 22.2194 587.614 18.5449 584.517 15.4501C581.42 12.3553 577.743 9.90078 573.698 8.22672C569.652 6.55265 565.316 5.69181 560.938 5.69336C556.56 5.69491 552.225 6.55881 548.18 8.23574C544.136 9.91266 540.461 12.3698 537.367 15.4668L405.7 147.133V86.2001C405.7 77.3596 402.188 68.8811 395.937 62.6299C389.686 56.3787 381.207 52.8668 372.367 52.8668C363.526 52.8668 355.048 56.3787 348.796 62.6299C342.545 68.8811 339.033 77.3596 339.033 86.2001V227.6C339.033 236.441 342.545 244.919 348.796 251.17C355.048 257.422 363.526 260.933 372.367 260.933H513.8C522.64 260.933 531.119 257.422 537.37 251.17C543.621 244.919 547.133 236.441 547.133 227.6C547.133 218.76 543.621 210.281 537.37 204.03C531.119 197.779 522.64 194.267 513.8 194.267Z" fill="white"/>
<path d="M356.133 457.667L139.333 242.333C139.333 242.333 356.133 84.5667 108.333 0C108.4 0 0 3.83334 0 161.533C0 238.467 54.2 323.067 123.867 388.467C136.133 400.067 149.2 412.967 162.867 426.533C240.1 502.933 338.2 600 433.533 600C592.267 600 600 488.467 600 488.467C526.467 273.067 379.333 430.8 356.133 457.7V457.667Z" fill="white"/>
</svg>
