<svg width="601" height="600" viewBox="0 0 601 600" fill="none" xmlns="http://www.w3.org/2000/svg">
<path d="M300.128 599.6C356.815 599.585 412.321 583.395 460.128 552.934L600.128 599.6L553.461 459.6C588.91 403.33 604.642 336.87 598.182 270.679C591.722 204.488 563.437 142.324 517.777 93.9702C472.117 45.6159 411.675 13.8163 345.963 3.57586C280.251 -6.66462 212.999 5.23533 154.791 37.403C96.5828 69.5707 50.7229 120.18 24.4282 181.266C-1.86647 242.353 -7.10313 310.448 9.54235 374.837C26.1878 439.225 63.7704 496.251 116.376 536.941C168.981 577.63 233.623 599.673 300.128 599.6ZM166.795 182.934H433.461C442.302 182.934 450.78 186.445 457.032 192.697C463.283 198.948 466.795 207.426 466.795 216.267C466.795 225.107 463.283 233.586 457.032 239.837C450.78 246.088 442.302 249.6 433.461 249.6H166.795C157.954 249.6 149.476 246.088 143.225 239.837C136.973 233.586 133.461 225.107 133.461 216.267C133.461 207.426 136.973 198.948 143.225 192.697C149.476 186.445 157.954 182.934 166.795 182.934ZM166.795 349.6H300.128C308.969 349.6 317.447 353.112 323.698 359.363C329.95 365.615 333.461 374.093 333.461 382.934C333.461 391.774 329.95 400.253 323.698 406.504C317.447 412.755 308.969 416.267 300.128 416.267H166.795C157.954 416.267 149.476 412.755 143.225 406.504C136.973 400.253 133.461 391.774 133.461 382.934C133.461 374.093 136.973 365.615 143.225 359.363C149.476 353.112 157.954 349.6 166.795 349.6Z" fill="white"/>
</svg>
