<svg width="35" height="35" viewBox="0 0 35 35" fill="none" xmlns="http://www.w3.org/2000/svg">
<g clip-path="url(#clip0_331_11)">
<path d="M17.5 35C27.165 35 35 27.165 35 17.5C35 7.83504 27.165 0 17.5 0C7.83504 0 0 7.83504 0 17.5C0 27.165 7.83504 35 17.5 35Z" fill="url(#paint0_linear_331_11)"/>
<path d="M6.51784 18.356C8.56358 17.2292 10.8472 16.2887 12.9809 15.3434C16.6516 13.7951 20.337 12.2736 24.0595 10.8571C24.7838 10.6158 26.0852 10.3798 26.2128 11.4531C26.1429 12.9724 25.8555 14.4828 25.6583 15.9932C25.1579 19.3147 24.5795 22.6248 24.0155 25.9354C23.8212 27.0381 22.4398 27.6089 21.5559 26.9033C19.4317 25.4684 17.2911 24.0476 15.194 22.5794C14.5071 21.8814 15.1441 20.879 15.7576 20.3806C17.5072 18.6564 19.3626 17.1915 21.0207 15.3782C21.468 14.2981 20.1465 15.2084 19.7106 15.4873C17.3154 17.1378 14.9789 18.8891 12.4536 20.3397C11.1637 21.0498 9.66032 20.443 8.37101 20.0468C7.21497 19.5681 5.52107 19.0859 6.51784 18.356Z" fill="white"/>
</g>
<defs>
<linearGradient id="paint0_linear_331_11" x1="13.127" y1="1.4595" x2="4.37704" y2="21.875" gradientUnits="userSpaceOnUse">
<stop stop-color="#37AEE2"/>
<stop offset="1" stop-color="#1E96C8"/>
</linearGradient>
<clipPath id="clip0_331_11">
<rect width="35" height="35" fill="white"/>
</clipPath>
</defs>
</svg>
