<svg width="800" height="800" viewBox="0 0 800 800" fill="none" xmlns="http://www.w3.org/2000/svg">
<path d="M760.373 664C680.373 621.894 619.2 598.533 564.867 589.306L570.773 581.173C573.094 577.987 573.894 573.92 572.92 570.094L560.547 520.6C565.08 514.214 569.347 507.614 573.361 500.841C623.187 483.934 648.441 455.334 652.602 413.067C675.269 411.694 693.334 393 693.334 370V270C693.334 247.147 675.494 228.573 653.055 226.973C649.906 149.52 615.827 0 400 0C184.159 0 150.08 149.52 146.947 226.973C124.494 228.573 106.667 247.147 106.667 270V370C106.667 393.894 126.108 413.333 150 413.333H170C177.773 413.333 184.973 411.106 191.28 407.506C198.894 447.6 215.68 487.08 239.439 520.6L227.066 570.094C226.106 573.92 226.892 577.987 229.212 581.173L235.133 589.306C180.8 598.533 119.627 621.892 39.6125 664C15.1734 676.867 0 702.027 0 729.667V786.667C0 794.027 5.95938 800 13.3328 800H333.333H333.347H338.333H338.347L461.067 799.88C461.28 799.894 461.467 800 461.681 800H786.667C794.027 800 800 794.027 800 786.667V729.667C800 702.027 784.814 676.867 760.373 664ZM591.759 463.947C599.333 445.653 605.066 426.653 608.706 407.506C613.894 410.466 619.692 412.333 625.933 412.92C623.627 432 615.147 449.894 591.759 463.947ZM189.786 231.68C184.853 229.12 179.412 227.52 173.612 227.027C176.894 146.653 213.106 26.6672 400 26.6672C586.88 26.6672 623.094 146.655 626.373 227.027C620.573 227.52 615.133 229.12 610.2 231.68C593.427 130.667 505.68 53.3328 400 53.3328C294.306 53.3328 206.559 130.667 189.786 231.68ZM254.441 570.52L260.427 546.6C260.48 546.667 260.533 546.706 260.586 546.759C292.8 581.773 333.759 606.439 379.945 612.053C379.972 612.053 379.998 612.067 380.039 612.067L373.998 625.641L343.852 693.467L254.441 570.52ZM400 632.841L432.814 706.667H367.188L400 632.841ZM349.6 773.32L357.586 733.334H442.4L450.4 773.228L349.6 773.32ZM456.133 693.467L425.986 625.641L419.959 612.067C419.986 612.067 420.013 612.053 420.039 612.053C466.225 606.441 507.198 581.773 539.398 546.759C539.452 546.706 539.519 546.666 539.558 546.6L545.558 570.52L456.133 693.467ZM413.333 493.333C405.959 493.333 400 499.306 400 506.666C400 514.025 405.959 519.998 413.333 519.998C462.053 519.998 502.439 516.878 535.573 510.558C535.067 511.225 534.52 511.852 534 512.517C533.533 512.958 532.92 513.25 532.52 513.77C527.947 519.623 523.2 525.156 518.32 530.344C518.28 530.384 518.241 530.423 518.2 530.464C514.986 533.878 511.614 536.917 508.28 540.037C475.68 569.437 436.959 586.664 400 586.664C363.027 586.664 324.306 569.437 291.72 540.05C288.373 536.917 285 533.877 281.787 530.45C281.747 530.423 281.72 530.383 281.681 530.356C276.802 525.156 272.055 519.623 267.467 513.77C267.067 513.25 266.467 512.956 265.987 512.517C234.573 472.877 213.334 420.037 213.334 359.997V269.997V266.664C213.333 163.733 297.067 80 400 80C502.92 80 586.667 163.733 586.667 266.667V270V360C586.667 404.28 575 444.573 556.388 478.653C524.547 487.841 478.827 493.333 413.333 493.333Z" fill="white"/>
</svg>
