<svg width="562" height="561" viewBox="0 0 562 561" fill="none" xmlns="http://www.w3.org/2000/svg">
<path d="M0.999609 140.375C0.999609 163.825 9.59961 189.6 20.5246 216.95C31.4496 244.3 45.5246 270.075 56.4746 289.6C86.1746 341.175 124.45 391.95 168.2 434.125C211.95 476.3 263.525 511.475 321.325 532.575C354.925 545.85 388.525 560.7 426.025 560.7C444.775 560.7 471.35 553.675 495.55 543.5C519 533.35 540.075 517.725 547.9 498.975C551.025 491.95 554.925 482.575 557.275 471.625C559.625 461.475 561.175 451.3 561.175 444.275C561.175 440.375 561.175 436.45 560.4 435.675C558.05 430.975 552.575 427.075 546.325 423.175C532.25 416.15 529.925 413.8 508.825 401.3C486.95 388.8 464.3 374.725 444.75 364.575C435.375 359.1 429.125 356.75 426.775 356.75C414.275 356.75 398.65 373.95 385.375 392.7C371.3 411.45 355.675 428.65 344.75 428.65C339.275 428.65 333.8 426.3 327.55 422.4C321.3 418.5 315.05 415.375 311.15 413.025C242.4 373.95 196.3 327.875 157.25 259.9C152.55 252.075 141.625 235.675 141.625 227.075C141.625 216.925 155.7 205.2 169.75 192.7C183.025 180.975 197.1 166.925 197.1 149.725C197.1 147.375 195.525 140.35 192.4 130.2C185.375 109.875 176 86.4499 168.175 63.7999C164.275 52.8499 161.15 45.0499 160.35 41.1499C158.775 38.7999 158 35.6749 157.225 31.7749C156.45 27.8749 154.875 24.7499 154.1 21.6249C151.75 14.5999 147.85 9.1249 143.95 5.9999C140.05 4.4249 130.675 2.09989 121.3 1.29989C111.925 1.29989 100.975 0.524902 96.2996 0.524902C93.9496 0.524902 90.8246 0.524894 87.6996 1.29989H77.5496C52.5496 12.2499 34.5746 34.1249 21.2996 59.8999C8.79961 85.6749 0.974609 114.6 0.974609 140.375H0.999609Z"
 fill="currentColor"/>
</svg>
