<svg width="29" height="29" viewBox="0 0 29 29" fill="none" xmlns="http://www.w3.org/2000/svg">
<path fill-rule="evenodd" clip-rule="evenodd" d="M21.7218 20.0225C20.3001 20.8324 18.8728 21.6367 17.4397 22.4353C16.7147 22.8375 15.9897 23.234 15.2647 23.6418C14.9646 23.8117 14.6474 24.0836 14.2962 24.1459C13.9337 24.2082 13.5995 24.0269 13.271 23.9023C12.4157 23.5682 11.5435 23.2453 10.6882 22.9168C10.1728 22.7186 10.3767 22.1068 10.6429 21.8123C11.0167 21.3988 11.6794 21.767 12.0702 21.9482C12.6649 22.2258 13.2937 22.39 13.9167 22.5883C15.3044 23.0357 16.7544 20.7814 15.4517 19.8922C14.9702 19.5693 14.2792 19.4051 13.7354 19.1898C12.546 18.7197 11.3509 18.2553 10.1728 17.7568C9.39111 17.4283 8.60381 16.9978 7.7542 16.8902C6.96689 16.7939 6.05498 16.9299 5.296 17.1508C4.87686 17.2697 4.40107 17.4793 4.06689 17.7625C3.84033 17.9551 3.64775 18.2496 3.55713 18.5328V24.8766C3.55713 24.8766 3.59678 25.2391 3.95928 25.1541C5.02979 24.9049 6.3042 24.9785 7.36904 25.2107C8.37158 25.4316 9.2835 25.9754 10.2294 26.3549C11.2772 26.774 12.3534 27.1082 13.4126 27.482C15.1628 28.0994 16.4089 26.6098 17.7966 25.8281C19.4901 24.8766 21.178 23.9137 22.8659 22.9621C23.1491 22.8035 23.4267 22.6449 23.7099 22.4863C24.146 22.2371 24.5651 21.3252 24.5198 20.8551C24.3896 19.3937 22.6733 19.4787 21.7218 20.0225Z" fill="white"/>
<path fill-rule="evenodd" clip-rule="evenodd" d="M2.44121 18.5158H1.01953C0.645703 18.5158 0.339844 18.8217 0.339844 19.1955V24.4801C0.339844 24.8539 0.645703 25.1598 1.01953 25.1598H2.44121C2.81504 25.1598 3.1209 24.8539 3.1209 24.4801V19.1955C3.1209 18.8217 2.81504 18.5158 2.44121 18.5158ZM2.0957 20.0735C1.8125 20.0735 1.58594 19.8469 1.58594 19.5637C1.58594 19.2805 1.8125 19.0539 2.0957 19.0539C2.37891 19.0539 2.60547 19.2805 2.60547 19.5637C2.60547 19.8412 2.37324 20.0735 2.0957 20.0735Z" fill="white"/>
<path d="M28.6602 14.8512H4.89941V15.8197H28.6602V14.8512Z" fill="white"/>
<path fill-rule="evenodd" clip-rule="evenodd" d="M6.94961 14.3301C6.9666 14.1772 6.99492 13.9393 7.04023 13.69C7.05156 13.6391 7.05723 13.5881 7.06855 13.5315C7.07988 13.4748 7.09121 13.4182 7.1082 13.3615C7.13652 13.2426 7.16484 13.1123 7.19316 12.9764C7.21016 12.9084 7.22715 12.8348 7.24414 12.7668C7.2668 12.6932 7.28379 12.6195 7.30645 12.5459C7.35176 12.393 7.39707 12.2344 7.44238 12.0701C7.55566 11.7416 7.66895 11.3848 7.82188 11.0223C7.86152 10.9316 7.89551 10.8354 7.93516 10.7447C7.98047 10.6541 8.02012 10.5578 8.06543 10.4672C8.11074 10.3709 8.15605 10.2803 8.1957 10.184C8.24102 10.0877 8.29199 9.99708 8.34297 9.90079C8.39395 9.8045 8.44492 9.70821 8.4959 9.61192C8.54688 9.51563 8.60918 9.42501 8.66016 9.32872C8.7168 9.23243 8.77344 9.1418 8.83008 9.04551C8.89238 8.94922 8.95469 8.8586 9.01699 8.76797C9.0793 8.67735 9.1416 8.58106 9.20391 8.49044C9.27188 8.39981 9.33984 8.30919 9.40781 8.21856C9.53809 8.03731 9.68535 7.86172 9.82695 7.6918C9.89492 7.60118 9.97422 7.52188 10.0479 7.43692C10.1215 7.35196 10.2008 7.27266 10.2744 7.1877C10.3537 7.10841 10.433 7.02911 10.5066 6.94981C10.5859 6.87051 10.6596 6.79122 10.7445 6.71758C10.8238 6.64395 10.9031 6.57032 10.9824 6.49102C11.0617 6.41739 11.1467 6.34942 11.226 6.27579C11.3846 6.13419 11.5545 6.00391 11.7131 5.87364C11.7924 5.80567 11.8773 5.74903 11.9566 5.68673C12.0416 5.62442 12.1209 5.56212 12.2002 5.51114C12.3645 5.39786 12.523 5.28458 12.6816 5.18829C12.9988 4.98438 13.3104 4.8088 13.5992 4.6502C13.8881 4.49727 14.16 4.367 14.4035 4.25938C14.6471 4.15176 14.8623 4.0668 15.0379 3.99883C15.3947 3.8629 15.6043 3.81192 15.6043 3.81192C15.6043 3.81192 15.4004 3.88555 15.0605 4.05547C14.7207 4.21973 14.2449 4.48028 13.7068 4.84278C13.4406 5.02403 13.1518 5.22794 12.8629 5.4545C12.7156 5.56778 12.574 5.69239 12.4211 5.817C12.3475 5.8793 12.2738 5.94727 12.2002 6.01524C12.1266 6.08321 12.0529 6.14551 11.9793 6.21915C11.8377 6.36075 11.6848 6.50235 11.5432 6.65528C11.4752 6.72891 11.3959 6.80255 11.3279 6.88184C11.26 6.96114 11.192 7.04044 11.1184 7.11973C11.0447 7.19903 10.9824 7.27833 10.9145 7.36329C10.8465 7.44825 10.7785 7.52754 10.7162 7.61251C10.6539 7.69747 10.5916 7.78243 10.5236 7.86739C10.4613 7.95235 10.3934 8.03731 10.3367 8.12794C10.2178 8.30919 10.0932 8.47911 9.99121 8.66602C9.93457 8.75665 9.88359 8.84727 9.82695 8.9379C9.77598 9.02852 9.725 9.12481 9.67402 9.21544C9.62305 9.30606 9.57207 9.39669 9.52676 9.49298C9.48145 9.58926 9.43613 9.67989 9.39648 9.77051C9.35117 9.86114 9.30586 9.95176 9.26621 10.0481C9.22656 10.1387 9.18691 10.235 9.15293 10.3256C9.11328 10.4162 9.07363 10.5068 9.03965 10.5975C9.00566 10.6881 8.97734 10.7787 8.94336 10.8693C8.90937 10.96 8.88105 11.0506 8.84707 11.1356C8.81875 11.2262 8.79609 11.3111 8.76777 11.4018C8.65449 11.7473 8.58652 12.0871 8.51289 12.393C8.48457 12.5516 8.45625 12.6988 8.43359 12.8404C8.42227 12.9141 8.40527 12.982 8.39395 13.05C8.38262 13.118 8.37695 13.1859 8.36562 13.2482C8.34863 13.3785 8.33164 13.4975 8.32031 13.6051C8.31465 13.6617 8.30898 13.7127 8.29766 13.7637C8.29199 13.8147 8.29199 13.8656 8.28633 13.9109C8.26934 14.1092 8.25801 14.2565 8.25234 14.3584H27.7367C27.7367 14.3131 27.7367 14.2678 27.7367 14.2225C27.7367 8.12794 23.0299 3.16055 17.1449 2.95098V2.28829C17.7227 2.23165 18.1418 2.0504 18.1418 1.84083C18.1418 1.58594 17.5188 1.37637 16.7541 1.37637C15.9895 1.37637 15.3664 1.58594 15.3664 1.84083C15.3664 2.0504 15.7855 2.23165 16.3633 2.28829V2.92266C10.4783 3.13223 5.77148 8.09962 5.77148 14.1941C5.77148 14.2395 5.77148 14.2848 5.77148 14.3301H6.94961ZM21.2061 5.08067C21.291 5.10899 21.393 5.1543 21.5063 5.20528C21.6195 5.25626 21.7498 5.31856 21.8857 5.39219C22.0217 5.46583 22.1689 5.55079 22.3162 5.64708C22.3898 5.69239 22.4691 5.74903 22.5428 5.80001C22.5824 5.82833 22.6164 5.85665 22.6561 5.88497C22.6957 5.91329 22.7354 5.94161 22.7693 5.96993C22.843 6.03223 22.9223 6.09454 23.0016 6.15684C23.0412 6.19083 23.0809 6.22481 23.1148 6.25879C23.1545 6.29278 23.1885 6.32676 23.2281 6.36641C23.2678 6.4004 23.3018 6.44005 23.3414 6.47403C23.3754 6.51368 23.415 6.54766 23.449 6.58731C23.483 6.62696 23.517 6.66661 23.5566 6.70626C23.5906 6.7459 23.6303 6.78555 23.6586 6.8252C23.7266 6.91016 23.7945 6.98946 23.8568 7.07442C23.8908 7.11973 23.9191 7.15938 23.9531 7.20469C23.9814 7.25001 24.0098 7.28965 24.0438 7.33497C24.0721 7.38028 24.1004 7.41993 24.1287 7.46524C24.157 7.51055 24.1797 7.55587 24.208 7.60118C24.2363 7.64649 24.2646 7.6918 24.2873 7.73712C24.31 7.78243 24.3326 7.82774 24.3609 7.87305C24.3836 7.91837 24.4119 7.96368 24.4289 8.00899C24.4516 8.0543 24.4686 8.09962 24.4912 8.14493C24.5139 8.19024 24.5309 8.23555 24.5535 8.2752C24.5705 8.32051 24.5875 8.36583 24.6045 8.40547C24.6781 8.5754 24.7291 8.74532 24.7857 8.89825C24.8084 8.97755 24.8311 9.05118 24.848 9.12481C24.8594 9.1588 24.8707 9.19278 24.8764 9.22676C24.882 9.26075 24.8934 9.29473 24.899 9.32872C24.916 9.39102 24.9273 9.45333 24.9387 9.50997C24.9443 9.53829 24.95 9.56661 24.9557 9.58926C24.9613 9.61758 24.967 9.64024 24.967 9.6629C25.001 9.84981 25.018 10.0367 25.018 10.0367L24.3893 10.0254C24.3893 10.0254 24.3836 9.92911 24.3666 9.75352C24.3666 9.73087 24.3609 9.70821 24.3609 9.68555C24.3553 9.6629 24.3553 9.63458 24.3496 9.61192C24.3439 9.56094 24.3383 9.5043 24.327 9.442C24.3213 9.41368 24.3213 9.37969 24.3156 9.35137C24.31 9.31739 24.3043 9.28907 24.2986 9.25508C24.2873 9.18712 24.276 9.11915 24.259 9.04551C24.225 8.90391 24.191 8.73965 24.14 8.58106C24.1287 8.54141 24.1174 8.4961 24.1004 8.45645C24.0834 8.4168 24.0721 8.37149 24.0551 8.33184C24.0381 8.29219 24.0268 8.24688 24.0098 8.20157C23.9928 8.15626 23.9758 8.11661 23.9588 8.07129C23.9418 8.02598 23.9248 7.98633 23.9021 7.94102C23.8852 7.89571 23.8625 7.85606 23.8398 7.81075C23.8172 7.76544 23.8002 7.72579 23.7775 7.68048C23.7549 7.63516 23.7322 7.59551 23.7096 7.5502C23.6869 7.50489 23.6643 7.46524 23.6359 7.41993C23.6076 7.38028 23.585 7.33497 23.5566 7.28965C23.5057 7.20469 23.449 7.11973 23.3924 7.03477C23.3641 6.99512 23.3357 6.95547 23.3074 6.91016C23.2791 6.87051 23.2451 6.83087 23.2168 6.79122C23.1828 6.75157 23.1545 6.71192 23.1205 6.67227C23.0865 6.63262 23.0582 6.59297 23.0242 6.55899C22.9902 6.51934 22.9563 6.48536 22.9279 6.44571C22.8939 6.40606 22.86 6.37208 22.826 6.33809C22.758 6.26446 22.69 6.20215 22.6221 6.13419C22.5881 6.1002 22.5541 6.07188 22.5201 6.0379C22.4861 6.00958 22.4521 5.97559 22.4182 5.94727C22.3502 5.89063 22.2822 5.82833 22.2143 5.77735C22.0783 5.66973 21.9424 5.57344 21.8178 5.48848C21.5629 5.31856 21.342 5.19962 21.1834 5.12032C21.0248 5.04102 20.9285 5.00704 20.9285 5.00704C20.9285 5.00704 21.0418 5.01837 21.2061 5.08067Z" fill="white"/>
</svg>
